<?xml version="1.0" standalone="no"?>
<!DOCTYPE svg PUBLIC "-//W3C//DTD SVG 20010904//EN"
 "http://www.w3.org/TR/2001/REC-SVG-20010904/DTD/svg10.dtd">
<svg version="1.0" xmlns="http://www.w3.org/2000/svg"
 width="626.000000pt" height="626.000000pt" viewBox="0 0 626.000000 626.000000"
 preserveAspectRatio="xMidYMid meet">

<g transform="translate(0.000000,626.000000) scale(0.100000,-0.100000)"
fill="#000000" stroke="none">
<path d="M2430 3988 c-404 -640 -834 -1320 -955 -1513 -246 -389 -608 -963
-619 -982 -6 -10 38 -13 204 -13 l210 0 34 52 c134 212 2008 3176 2019 3195 8
12 -142 423 -154 423 -3 0 -336 -523 -739 -1162z"/>
<path d="M3381 4272 c-100 -167 -537 -889 -1247 -2063 -239 -394 -434 -720
-434 -723 0 -3 114 -6 253 -6 l252 1 649 1109 c356 611 651 1110 655 1110 4 0
151 -249 327 -552 l319 -553 208 -3 c114 -1 207 -1 207 1 0 9 -1082 1832
-1088 1834 -4 1 -49 -69 -101 -155z"/>
<path d="M3392 3213 c-445 -837 -582 -1096 -582 -1099 0 -2 141 -4 313 -4 171
0 530 -3 797 -7 l485 -6 255 -500 255 -499 245 7 c135 4 246 8 248 10 2 2
-113 214 -257 472 -143 257 -263 475 -266 484 -5 14 25 17 257 28 145 7 265
15 267 17 5 4 -158 292 -170 299 -4 3 -424 18 -933 32 -510 15 -926 31 -926
35 0 5 62 133 139 286 l138 277 -77 172 c-42 95 -79 175 -82 179 -3 3 -51 -80
-106 -183z"/>
</g>
</svg>
